# xmcd
#
# Track frame offsets:
#       150
#       18302
#       40439
#       67651
#       86989
#       107400
#       126521
#       142753
#       163182
#       186091
#       207059
#       225233
#       246838
#       264250
#       284983
#       301787
#       319201
#       335543
#
# Disc length: 4734 seconds
#
# Revision: 0
# Processed by: cddbd v1.5.1PL0 Copyright (c) Steve Scherf et al.
# Submitted via: CD-DA_X-Tractor v0.24
#
DISCID=fb127c12
DTITLE=Josh Groban - Closer
DYEAR=1900
DGENRE=
TTITLE0=Oceano
TTITLE1=My Confession
TTITLE2=Mi Mancherai (Il Postino)
TTITLE3=Si Volvieras a Mi
TTITLE4=When You Say You Love Me
TTITLE5=Per Te
TTITLE6=All'improvviso Amore
TTITLE7=Broken Vow
TTITLE8=Caruso
TTITLE9=Remember When It Rained
TTITLE10=Hymne a L'Amour (If You Love Me)
TTITLE11=You Raise Me Up
TTITLE12=Never Let go
TTITLE13=Mi Morena
TTITLE14=She's Out of My Life
TTITLE15=To Where You Are
TTITLE16=You're Still You
TTITLE17=The Prayer with Charlotte Church
EXTD=
EXTT0=
EXTT1=
EXTT2=
EXTT3=
EXTT4=
EXTT5=
EXTT6=
EXTT7=
EXTT8=
EXTT9=
EXTT10=
EXTT11=
EXTT12=
EXTT13=
EXTT14=
EXTT15=
EXTT16=
EXTT17=
PLAYORDER=
